<?xml version="1.0" standalone="no"?>
<!DOCTYPE svg PUBLIC "-//W3C//DTD SVG 20010904//EN"
 "http://www.w3.org/TR/2001/REC-SVG-20010904/DTD/svg10.dtd">
<svg version="1.0" xmlns="http://www.w3.org/2000/svg"
 width="900.000000pt" height="900.000000pt" viewBox="0 0 900.000000 900.000000"
 preserveAspectRatio="xMidYMid meet">
<metadata>
Created by potrace 1.16, written by Peter Selinger 2001-2019
</metadata>
<g transform="translate(0.000000,900.000000) scale(0.100000,-0.100000)"
fill="#000000" stroke="none">
<path d="M0 4500 l0 -4500 4500 0 4500 0 0 4500 0 4500 -4500 0 -4500 0 0
-4500z m4585 2130 c8 -14 48 -13 62 1 9 9 83 0 289 -32 152 -24 270 -45 262
-47 -8 -2 -131 16 -273 38 -220 36 -262 40 -282 29 -19 -10 -31 -10 -55 -1
-24 9 -52 7 -146 -10 -114 -21 -134 -30 -127 -52 31 -96 100 -276 106 -276 4
0 15 -7 23 -16 22 -21 20 -67 -3 -81 -25 -16 -61 -238 -41 -256 10 -9 11 -9 5
2 -4 7 -2 46 5 87 12 68 15 74 46 89 63 30 129 -9 122 -71 -4 -36 1 -41 20
-22 7 7 12 8 12 2 0 -5 5 -2 10 6 7 11 10 11 10 2 0 -7 4 -11 10 -7 5 3 7 13
4 23 -5 13 -4 14 4 3 12 -16 20 -4 17 28 -2 21 0 22 10 8 10 -14 16 -12 48 21
30 31 34 40 26 57 -9 18 -9 19 4 3 13 -17 17 -15 56 24 23 22 39 44 34 47 -12
9 -15 41 -3 41 5 0 10 6 10 14 0 23 28 39 70 39 32 0 50 9 107 55 67 55 67 55
25 11 -23 -25 -39 -49 -35 -53 4 -4 0 -4 -8 -1 -19 7 -54 -29 -44 -45 5 -8 32
-10 84 -6 49 3 65 2 46 -3 -16 -5 -49 -9 -72 -10 -23 0 -44 -5 -48 -11 -3 -5
19 -25 49 -44 127 -81 149 -82 197 -4 42 70 46 132 10 173 -25 29 -25 29 9 -2
26 -24 41 -31 58 -26 48 12 82 -56 46 -92 -15 -15 -15 -22 6 -88 12 -40 27
-89 32 -109 7 -25 16 -38 28 -38 26 0 45 -42 31 -69 -12 -22 -71 -31 -71 -11
0 15 -13 13 -136 -26 -63 -20 -111 -40 -108 -45 8 -14 -5 -67 -22 -83 -11 -11
-11 -15 0 -19 7 -3 13 0 13 7 0 6 8 24 18 40 18 27 19 27 26 8 4 -11 17 -23
29 -27 16 -5 19 -12 14 -27 -4 -13 -2 -18 4 -14 19 12 21 -35 1 -55 -10 -10
-16 -19 -13 -19 3 0 38 34 77 75 l72 75 104 17 105 18 73 112 c61 92 80 114
108 123 19 6 35 15 35 20 0 8 -166 173 -314 313 -29 28 -59 47 -72 47 -13 0
-25 4 -28 8 -3 5 10 6 28 3 25 -5 74 -46 214 -180 100 -96 182 -183 182 -192
0 -10 -11 -20 -27 -24 -30 -7 -63 -32 -63 -47 0 -5 13 1 29 13 38 28 109 35
127 11 8 -9 47 -73 89 -142 55 -93 73 -131 68 -148 -3 -14 1 -29 10 -40 13
-15 12 -33 -19 -177 -63 -291 -76 -357 -72 -360 2 -3 29 113 61 257 34 156 63
268 73 279 19 21 11 55 -14 61 -10 3 -40 43 -67 89 -27 46 -68 114 -92 152
-24 37 -43 70 -43 74 0 13 46 -55 115 -172 39 -64 82 -126 97 -137 31 -21 36
-53 14 -77 -8 -9 -39 -131 -69 -271 l-54 -255 20 -22 c14 -16 18 -29 13 -50
-4 -15 -7 -32 -8 -38 -1 -5 -19 -11 -41 -13 -22 -1 -44 -5 -49 -8 -13 -8 -1
-69 23 -116 10 -20 19 -49 19 -63 0 -14 7 -36 15 -48 39 -60 43 -612 5 -688
-15 -27 -17 -44 -10 -73 4 -21 11 -40 14 -43 10 -11 -15 -32 -30 -26 -9 3 -14
0 -12 -8 2 -9 -4 -13 -14 -11 -10 2 -18 -2 -18 -8 0 -5 5 -10 11 -10 13 0 -21
-60 -38 -67 -7 -3 -13 -11 -13 -19 0 -19 -32 -54 -43 -47 -5 3 -3 9 4 14 10 6
7 8 -8 6 -20 -1 -21 -3 -7 -18 14 -16 14 -19 -8 -41 -13 -13 -26 -23 -30 -23
-4 0 -13 -7 -20 -15 -11 -12 -11 -12 5 -1 9 7 17 9 17 3 0 -15 -26 -33 -35
-24 -5 4 -5 1 -1 -5 4 -8 -3 -22 -17 -35 -13 -13 -36 -41 -52 -63 -16 -22 -36
-48 -45 -57 -26 -30 -36 -43 -39 -53 -1 -5 -9 -14 -17 -18 -8 -4 -14 -13 -14
-18 0 -11 25 10 28 23 2 4 14 20 28 35 13 14 35 40 47 56 12 17 38 48 58 71
19 23 49 59 65 80 16 22 39 51 51 64 12 13 41 49 65 80 24 32 45 59 48 62 16
15 90 118 90 124 0 4 -6 4 -12 0 -7 -4 -10 -4 -6 0 3 4 10 8 15 7 11 0 53 40
53 51 0 5 -5 6 -12 2 -7 -4 -8 -3 -4 5 4 6 11 9 16 6 12 -7 178 243 261 393
38 68 69 126 69 128 0 2 13 32 28 66 93 205 136 378 151 598 4 69 9 103 10 76
2 -97 37 -230 63 -247 5 -3 10 -34 11 -67 1 -34 5 -62 8 -62 17 0 30 -58 24
-109 -4 -36 -3 -51 3 -43 20 29 21 -34 2 -93 -81 -259 -323 -667 -592 -1002
-433 -540 -483 -613 -549 -795 -35 -100 -61 -149 -105 -204 -32 -40 -32 -42
-19 -80 8 -21 14 -68 15 -103 0 -66 -17 -144 -31 -136 -4 3 -5 -5 -1 -17 4
-17 2 -20 -13 -15 -12 5 -16 3 -12 -5 2 -7 7 -24 11 -38 l6 -25 -12 23 c-9 17
-17 22 -32 17 -12 -4 -41 -12 -66 -18 -25 -6 -47 -14 -50 -17 -3 -3 -17 -11
-32 -17 -29 -13 -35 -27 -18 -38 6 -3 10 -12 10 -18 -1 -7 -5 -6 -13 4 -7 8
-27 23 -46 32 -31 15 -92 17 -638 17 -588 0 -605 -1 -646 -20 -23 -12 -34 -15
-24 -7 9 8 17 16 17 19 0 6 -68 24 -122 33 -20 3 -50 12 -65 20 -15 8 -33 15
-39 15 -16 0 -38 56 -28 71 4 7 3 10 -3 6 -29 -18 -33 189 -4 240 6 11 -5 33
-39 78 -26 34 -60 96 -75 136 -42 115 -134 291 -196 378 -31 43 -110 145 -175
227 -450 559 -651 879 -771 1224 -35 100 -49 153 -33 130 8 -13 10 -12 11 5 1
11 5 2 10 -20 7 -37 7 -36 5 15 -1 30 -6 64 -10 75 -6 16 -6 17 3 5 8 -11 11
-12 11 -2 0 7 7 20 16 29 9 10 13 25 10 42 -3 14 -2 33 4 41 5 8 10 11 11 5 2
-19 31 91 39 145 6 50 7 52 9 15 1 -22 6 -47 11 -55 7 -12 9 -9 8 10 -1 14 0
57 1 95 l4 70 8 -85 c28 -278 115 -530 283 -820 87 -151 283 -430 298 -427 6
1 13 -5 15 -13 4 -13 3 -13 -6 0 -6 8 -11 10 -11 4 0 -17 22 -32 42 -29 10 2
20 -1 24 -6 3 -5 10 -6 16 -3 7 4 8 2 4 -5 -4 -6 -13 -8 -19 -4 -18 11 -37 12
-37 3 0 -5 12 -18 26 -29 15 -12 23 -21 19 -21 -5 0 2 -11 14 -24 13 -14 29
-22 37 -19 8 3 14 0 14 -6 0 -6 -5 -11 -11 -11 -5 0 12 -28 40 -63 28 -34 77
-96 110 -138 33 -42 74 -91 91 -109 16 -18 30 -34 30 -35 0 -2 26 -43 58 -92
71 -107 139 -234 177 -328 53 -135 60 -150 89 -183 58 -66 83 -72 292 -72
l187 0 -7 53 c-3 28 -7 81 -7 117 -1 36 -4 52 -6 35 -7 -56 -10 -59 -46 -38
-17 11 -60 25 -94 33 -35 7 -63 16 -63 20 0 4 -17 11 -37 15 -37 6 -123 53
-123 67 0 3 -18 9 -40 13 -25 4 -40 12 -40 21 0 8 -8 14 -19 14 -10 0 -24 7
-31 15 -7 8 -19 15 -26 15 -8 0 -14 7 -14 15 0 8 -4 15 -10 15 -5 0 -9 -10 -7
-21 1 -12 -3 -24 -10 -26 -7 -3 -9 3 -6 16 6 23 -14 54 -28 45 -5 -3 -12 8
-15 25 -4 17 -10 28 -15 25 -5 -3 -4 -14 1 -25 6 -10 8 -19 6 -19 -3 0 -10 9
-16 21 -12 22 4 54 21 43 5 -3 9 -3 9 0 0 14 -20 14 -34 0 -13 -13 -16 -13
-16 -1 0 8 -9 26 -20 39 -10 14 -17 28 -14 31 3 3 1 14 -5 24 -6 11 -11 13
-11 5 0 -7 -4 -11 -10 -7 -5 3 -6 13 -3 23 3 9 3 14 -2 10 -9 -9 -50 39 -59
70 -4 13 -12 19 -18 16 -7 -5 -9 -1 -5 9 4 10 2 16 -6 14 -7 -1 -11 4 -9 11 1
8 -2 11 -6 8 -11 -7 -48 32 -39 40 10 11 -13 45 -28 42 -13 -3 -75 72 -75 91
0 5 -11 18 -25 29 -14 11 -24 26 -22 33 2 8 2 11 0 6 -3 -4 -9 -5 -14 -1 -5 3
-5 14 2 26 8 15 8 19 0 14 -7 -5 -10 1 -8 15 2 19 -3 23 -28 23 -28 1 -30 4
-30 39 0 21 -5 41 -12 45 -6 4 -14 24 -18 45 -4 20 -11 37 -15 37 -21 0 -43
275 -37 465 4 124 11 173 37 283 18 72 36 132 41 132 5 0 9 10 9 23 0 13 9 33
19 44 28 30 38 88 16 97 -9 3 -22 3 -28 -1 -7 -3 -8 -2 -4 3 5 5 22 9 39 10
21 1 26 -1 17 -7 -16 -10 -8 -12 15 -3 13 5 13 8 1 20 -7 8 -22 11 -32 8 -16
-5 -16 -4 -1 5 19 13 73 -3 63 -18 -3 -6 4 -9 15 -8 23 1 21 3 -41 44 -33 22
-54 29 -76 26 -43 -7 -67 20 -59 66 9 53 -77 244 -116 259 -37 14 -39 62 -4
89 32 25 157 384 149 426 -6 30 20 61 45 52 7 -3 25 4 40 14 101 72 513 341
508 332 -13 -21 -521 -355 -541 -356 -33 -1 -47 -15 -40 -42 4 -17 -15 -89
-60 -223 -53 -157 -72 -202 -91 -215 -34 -22 -28 -63 11 -69 27 -4 120 -209
120 -266 l0 -45 41 0 c23 -1 48 -5 56 -10 8 -6 4 -1 -9 10 -13 12 -23 29 -23
39 0 10 -10 20 -21 23 -26 7 -143 242 -128 258 12 12 11 49 -1 61 -7 7 5 57
40 160 28 82 59 171 67 197 9 26 25 53 35 58 10 5 18 18 18 28 0 12 82 72 265
194 146 98 272 177 282 177 9 0 24 6 32 14 16 14 198 52 206 44 3 -3 -39 -13
-92 -23 -54 -10 -105 -24 -114 -31 -8 -8 -22 -14 -31 -14 -23 0 -538 -349
-538 -365 0 -8 -8 -20 -18 -27 -12 -8 -42 -84 -81 -201 -55 -164 -61 -191 -52
-218 7 -20 7 -37 1 -49 -7 -14 2 -43 42 -127 28 -59 52 -110 54 -112 1 -1 13
-4 26 -4 17 -2 23 -8 25 -26 1 -27 30 -54 50 -47 7 3 10 -1 6 -10 -3 -7 -1
-14 4 -14 4 0 33 -16 63 -36 30 -20 47 -27 37 -17 -9 11 -14 23 -10 27 4 4 -1
4 -11 0 -13 -5 -17 -4 -12 4 5 8 1 10 -10 5 -13 -5 -15 -3 -9 7 5 8 4 11 -1 7
-6 -3 -16 -2 -24 3 -12 7 -11 12 5 30 10 11 20 30 22 42 2 12 13 31 26 43 25
24 57 63 57 69 0 2 13 17 28 34 25 27 33 29 82 26 30 -2 -8 5 -84 16 l-139 19
-23 -24 c-23 -25 -66 -33 -91 -17 -22 14 -33 60 -21 87 13 29 57 47 81 33 14
-7 23 -2 44 23 15 17 31 36 37 43 73 79 96 108 91 116 -4 6 -3 9 2 8 4 -2 8 2
8 7 0 6 -3 9 -7 8 -4 -2 -5 4 -1 13 4 11 8 12 13 4 5 -8 10 -9 14 -2 3 6 2 13
-4 17 -5 3 -10 11 -10 18 0 6 7 1 16 -11 16 -24 39 -20 30 5 -3 8 -2 12 3 9 4
-3 16 3 25 13 16 18 16 22 2 50 -9 16 -16 49 -16 72 0 33 6 47 33 74 83 83
217 34 217 -79 0 -20 1 -36 3 -36 2 0 52 -9 112 -20 131 -24 129 -24 121 -4
-3 8 -2 13 2 10 4 -2 16 2 26 10 18 13 19 19 6 113 -12 94 -14 100 -39 106
-14 4 -33 12 -41 20 -13 11 -29 2 -108 -57 -51 -38 -96 -68 -98 -65 -3 3 38
36 90 73 79 57 94 72 89 89 -19 58 28 125 88 125 44 0 89 -47 89 -93 0 -37
-32 -87 -56 -87 -17 0 -17 7 1 -110 8 -52 15 -98 15 -102 0 -5 9 -8 19 -8 28
0 51 -27 51 -61 0 -32 17 -40 26 -11 19 61 37 81 79 88 47 6 90 -13 98 -44 4
-13 5 -12 6 3 1 13 8 21 20 21 15 0 18 -7 16 -36 -1 -19 0 -26 2 -15 3 11 12
29 21 39 13 15 14 18 2 11 -12 -7 -12 -5 1 11 23 26 52 200 38 226 -6 11 -8
35 -5 53 8 42 -77 301 -104 315 -13 7 -58 2 -145 -16 -70 -14 -135 -24 -144
-22 -9 2 50 16 131 31 115 21 152 25 166 16 11 -7 39 -71 71 -160 43 -121 51
-152 41 -164 -10 -12 -9 -19 2 -37 9 -13 14 -40 12 -63 l-3 -40 8 36 c4 19 17
45 30 58 26 26 24 42 -6 56 -28 12 -128 298 -114 323 6 11 46 24 123 38 134
26 145 27 153 14z"/>
<path d="M5233 6216 c-44 -77 -35 -111 37 -148 14 -7 42 -23 63 -36 32 -19 38
-20 43 -7 4 8 2 28 -4 43 -6 15 -21 62 -33 105 -16 56 -26 77 -38 77 -10 0
-21 4 -27 10 -7 7 -20 -8 -41 -44z"/>
<path d="M4947 6225 c-6 -13 54 -240 64 -249 2 -2 16 -6 30 -10 24 -5 31 0 67
58 56 89 51 101 -56 162 -107 61 -98 58 -105 39z"/>
<path d="M4815 6170 c-21 -22 -33 -40 -26 -40 7 0 10 -4 6 -10 -3 -5 -11 -7
-18 -4 -7 2 -37 -21 -67 -51 -44 -45 -52 -57 -40 -65 10 -6 20 -4 30 5 14 12
16 12 16 -5 0 -10 -3 -18 -6 -18 -18 2 -30 -3 -26 -10 8 -14 114 -34 138 -27
16 4 19 3 10 -3 -20 -13 27 -24 47 -11 12 7 10 8 -9 3 -15 -4 -21 -3 -15 2 5
5 13 13 16 17 3 5 14 1 23 -9 14 -14 15 -19 4 -26 -9 -7 -8 -8 5 -4 10 3 25 6
33 6 8 0 14 6 14 13 0 7 11 17 24 23 l24 9 -35 120 c-20 66 -37 122 -39 124
-2 2 -9 -1 -16 -6 -16 -12 -49 -13 -42 -1 14 22 -16 3 -51 -32z"/>
<path d="M5174 6083 c-13 -2 -34 -27 -56 -67 l-35 -63 21 -25 c18 -22 25 -24
46 -16 14 5 66 22 115 37 56 17 90 32 90 41 0 14 -132 100 -150 98 -5 0 -19
-3 -31 -5z"/>
<path d="M5755 6078 c-24 -7 -45 -34 -99 -119 -38 -60 -76 -113 -85 -118 -9
-5 -60 -16 -113 -26 l-97 -17 -68 -75 c-79 -88 -100 -122 -26 -43 l50 53 18
-27 c17 -26 18 -26 32 -6 17 24 65 27 87 5 14 -14 30 -13 162 15 81 16 149 30
151 30 2 0 3 12 3 28 1 34 19 58 54 72 47 17 106 -26 106 -78 0 -27 -38 -72
-60 -72 -14 0 -25 -21 -50 -102 -17 -57 -40 -130 -51 -162 -17 -53 -17 -61 -4
-76 33 -36 8 -89 -42 -90 -12 0 -24 -3 -26 -7 -5 -8 17 -12 75 -15 21 -1 24
-3 14 -13 -7 -7 -21 -15 -32 -18 -10 -3 10 -3 46 -1 53 2 58 1 25 -5 -38 -8
-39 -8 -10 -11 17 -2 -8 -7 -55 -10 l-85 -6 85 -2 c78 -1 87 1 114 24 21 18
32 42 41 82 7 31 31 142 55 246 36 160 40 192 30 211 -7 13 -10 33 -7 45 6 25
-147 290 -168 290 -7 0 -19 2 -27 4 -7 2 -27 0 -43 -6z"/>
<path d="M3680 5936 c0 -13 -33 -45 -76 -73 -17 -12 -16 -12 7 -7 18 4 28 1
32 -10 13 -34 -23 -65 -37 -33 -3 6 -3 -35 0 -93 6 -113 20 -160 17 -57 -1 45
0 55 6 37 l9 -25 2 25 2 25 8 -25 c7 -24 7 -24 17 10 8 29 15 36 47 44 29 6
41 5 48 -5 6 -10 7 -7 3 10 -4 13 -3 21 2 18 4 -3 17 1 28 9 10 8 15 14 11 14
-5 0 -3 7 4 15 18 21 33 19 27 -5 -3 -11 -1 -23 4 -26 5 -3 9 6 9 19 0 26 23
51 57 64 41 15 8 34 -88 54 -52 10 -104 21 -116 24 -16 4 -23 1 -23 -9z"/>
<path d="M3451 5851 c-26 -33 -32 -69 -10 -56 5 4 6 -1 3 -10 -4 -9 -9 -13
-12 -11 -3 3 -11 1 -19 -5 -10 -9 -13 -8 -13 5 0 10 5 14 10 11 6 -3 10 1 10
9 0 9 -2 16 -4 16 -2 0 -47 -49 -100 -109 -90 -102 -95 -110 -83 -132 7 -13
19 -25 27 -27 12 -3 12 -1 3 9 -6 6 -9 18 -6 27 5 11 3 13 -7 7 -8 -5 -11 -4
-7 2 11 17 62 9 65 -11 2 -10 -1 -22 -8 -26 -13 -8 43 -17 155 -24 75 -6 71
-1 -8 9 -54 7 -55 9 -12 19 23 5 27 4 15 -5 -12 -9 -10 -10 10 -5 14 3 35 6
48 6 12 0 22 4 22 9 0 5 -10 7 -21 4 -26 -7 -49 19 -42 47 3 13 14 20 28 20
14 0 25 7 28 18 4 14 5 13 6 -4 0 -11 8 -29 16 -40 15 -18 15 -18 9 9 -4 17
-2 27 5 27 6 0 11 -7 11 -15 0 -24 16 -17 17 8 1 12 -1 67 -3 122 l-6 100 -49
16 -50 16 -28 -36z"/>
<path d="M5642 5713 c-66 -16 -100 -29 -94 -35 11 -11 4 -48 -9 -48 -23 0 -5
-19 31 -33 22 -8 40 -11 40 -6 0 5 12 9 28 9 16 0 41 12 62 31 19 17 50 42 67
56 28 21 30 27 18 39 -17 17 -18 17 -143 -13z"/>
<path d="M5760 5664 c-43 -39 -45 -54 -5 -46 27 5 34 -15 13 -36 -9 -9 -17 -6
-34 15 -22 28 -22 28 -43 9 -12 -11 -21 -29 -21 -41 0 -11 -5 -26 -12 -33 -9
-9 -9 -12 1 -12 7 0 10 -4 7 -9 -9 -14 45 -131 59 -131 7 0 15 11 17 25 4 20
2 23 -7 15 -16 -13 -30 4 -30 35 -1 25 42 31 47 7 2 -9 21 35 42 98 21 63 41
121 43 127 10 27 -38 12 -77 -23z"/>
<path d="M5442 3410 c3 -19 -19 -60 -33 -60 -5 0 -2 12 7 28 l16 27 -20 -22
c-11 -13 -18 -31 -15 -42 3 -10 -1 -22 -8 -26 -7 -5 -10 -4 -6 3 4 5 2 21 -3
34 -10 21 -10 21 -5 -5 4 -22 3 -27 -7 -21 -7 4 -5 -2 5 -13 19 -22 12 -39
-10 -21 -10 8 -19 6 -39 -13 -13 -12 -22 -29 -19 -37 3 -8 7 -26 10 -40 4 -20
2 -18 -9 8 -8 19 -15 28 -15 20 -1 -13 -2 -13 -11 0 -8 12 -13 11 -33 -8 -13
-12 -29 -22 -36 -22 -36 0 -91 -24 -91 -40 0 -17 -34 -30 -120 -46 -19 -3 -45
-12 -57 -20 -12 -8 -34 -14 -47 -14 -30 0 -95 -29 -98 -44 -1 -6 -4 23 -8 64
-5 68 -6 61 -10 -68 l-5 -142 183 0 c130 0 192 4 215 13 52 22 102 86 126 163
25 75 82 200 129 280 22 36 28 55 21 65 -8 12 -9 12 -7 -1z"/>
<path d="M4430 3107 l0 -83 -35 1 c-19 1 -44 10 -55 20 -20 18 -20 18 -20 -68
l0 -87 60 0 60 0 0 150 c0 83 -2 150 -5 150 -3 0 -5 -37 -5 -83z"/>
<path d="M4552 3033 l-2 -143 60 0 60 0 -1 108 c0 96 -2 103 -12 72 -7 -19
-19 -36 -27 -36 -8 -1 -27 -5 -42 -9 l-27 -7 -4 79 c-2 48 -4 23 -5 -64z"/>
<path d="M3863 2735 c-86 -37 -97 -167 -18 -219 24 -16 78 -17 644 -18 583 -1
620 1 650 18 84 50 75 182 -14 220 -50 21 -1214 20 -1262 -1z"/>
</g>
</svg>
